<svg version="1.1" viewBox="0.0 0.0 960.0 720.0" fill="none" stroke="none" stroke-linecap="square" stroke-miterlimit="10" xmlns:xlink="http://www.w3.org/1999/xlink" xmlns="http://www.w3.org/2000/svg"><clipPath id="p.0"><path d="m0 0l960.0 0l0 720.0l-960.0 0l0 -720.0z" clip-rule="nonzero"/></clipPath><g clip-path="url(#p.0)"><path fill="#000000" fill-opacity="0.0" d="m0 0l960.0 0l0 720.0l-960.0 0z" fill-rule="evenodd"/><path fill="#000000" fill-opacity="0.0" d="m26.427828 360.0002l189.85828 -189.85826l189.85828 189.85826l-189.85828 189.85825z" fill-rule="evenodd"/><path stroke="#000000" stroke-width="1.0" stroke-linejoin="round" stroke-linecap="butt" d="m26.427828 360.0002l189.85828 -189.85826l189.85828 189.85826l-189.85828 189.85825z" fill-rule="evenodd"/><path fill="#000000" d="m270.81735 363.00522q0 10.875 -3.6875 18.875q-3.6875 8.0 -10.125 13.5q5.625 1.75 11.03125 3.1875q5.40625 1.4375 10.46875 2.3125l-3.0625 7.8125q-6.0625 -1.5625 -12.71875 -3.8125q-6.65625 -2.25 -13.03125 -4.625q-6.8125153 3.75 -15.281265 5.53125q-8.46875 1.78125 -17.96875 1.78125q-11.5625 0 -21.5625 -2.625q-10.0 -2.625 -17.375 -8.09375q-7.375 -5.46875 -11.5625 -13.875q-4.1875 -8.40625 -4.1875 -19.96875q0 -7.6875 1.9375 -13.96875q1.9375 -6.28125 5.4375 -11.25q3.5 -4.96875 8.46875 -8.59375q4.96875 -3.625 11.0625 -6.03125q6.09375 -2.40625 13.09375 -3.5625q7.0 -1.15625 14.6875 -1.15625q11.5 0 21.4375 2.625q9.9375 2.625 17.250015 8.09375q7.3125 5.46875 11.5 13.875q4.1875 8.40625 4.1875 19.96875zm-8.0625 0q0 -9.125 -2.96875 -16.125q-2.96875 -7.0 -8.78125 -11.78125q-5.8125153 -4.78125 -14.468765 -7.25q-8.65625 -2.46875 -20.09375 -2.46875q-11.4375 0 -20.15625 2.5q-8.71875 2.5 -14.59375 7.28125q-5.875 4.78125 -8.875 11.8125q-3.0 7.03125 -3.0 16.03125q0 9.125 3.0 16.125q3.0 7.0 8.875 11.78125q5.875 4.78125 14.59375 7.25q8.71875 2.46875 20.15625 2.46875q14.375 0 24.3125 -3.8125q-3.8125 -1.5625 -7.0 -2.90625q-3.1875 -1.34375 -5.5625 -2.40625q-2.75 -1.1875 -5.0 -2.25l3.0625 -6.3125q5.0625 2.5625 10.78125 5.0q5.71875 2.4375 11.90625 4.625q6.8125153 -4.8125 10.312515 -12.21875q3.5 -7.40625 3.5 -17.34375z" fill-rule="nonzero"/><path fill="#000000" fill-opacity="0.0" d="m553.8558 360.0002l189.85828 -189.85826l189.85828 189.85826l-189.85828 189.85825z" fill-rule="evenodd"/><path stroke="#000000" stroke-width="1.0" stroke-linejoin="round" stroke-linecap="butt" d="m553.8558 360.0002l189.85828 -189.85826l189.85828 189.85826l-189.85828 189.85825z" fill-rule="evenodd"/><path fill="#000000" d="m743.7453 367.06772l-37.0 38.8125l-9.875 0l42.0 -44.0625l-39.9375 -41.8125l9.875 0l34.9375 36.75l35.0625 -36.75l9.875 0l-39.9375 41.8125l41.9375 44.0625l-9.8125 0l-37.125 -38.8125z" fill-rule="nonzero"/><path fill="#000000" fill-opacity="0.0" d="m290.1418 360.0002l189.85825 -189.85826l189.85828 189.85826l-189.85828 189.85825z" fill-rule="evenodd"/><path stroke="#000000" stroke-width="1.0" stroke-linejoin="round" stroke-linecap="butt" d="m290.1418 360.0002l189.85825 -189.85826l189.85828 189.85826l-189.85828 189.85825z" fill-rule="evenodd"/><path fill="#000000" d="m526.00006 382.19272q0 5.0 -1.3125 8.6875q-1.3125 3.6875 -3.65625 6.34375q-2.34375 2.65625 -5.625 4.3125q-3.28125 1.65625 -7.21875 2.625q-3.9375 0.96875 -8.4375 1.34375q-4.5 0.375 -9.3125 0.375l-49.5625 0l0 -85.875l48.4375 0q3.6875 0 7.375 0.3125q3.6875 0.3125 7.09375 1.15625q3.40625 0.84375 6.3125 2.34375q2.90625 1.5 5.0625 3.9375q2.15625 2.4375 3.375 5.875q1.21875 3.4375 1.21875 8.125q0 4.1875 -1.03125 7.25q-1.03125 3.0625 -3.125 5.25q-2.09375 2.1875 -5.34375 3.59375q-3.25 1.40625 -7.625 2.21875q6.25 0.4375 10.6875 2.125q4.4375 1.6875 7.25 4.5q2.8125 2.8125 4.125 6.71875q1.3125 3.90625 1.3125 8.78125zm-13.5625 -40.3125q0 -1.8125 -0.25 -3.625q-0.25 -1.8125 -1.125 -3.46875q-0.875 -1.65625 -2.53125 -3.09375q-1.65625 -1.4375 -4.53125 -2.46875q-2.875 -1.03125 -7.09375 -1.625q-4.21875 -0.59375 -10.15625 -0.59375l-38.0625 0l0 30.0l38.0625 0q8.4375 0 13.5 -1.21875q5.0625 -1.21875 7.78125 -3.28125q2.71875 -2.0625 3.5625 -4.8125q0.84375 -2.75 0.84375 -5.8125zm5.375 40.1875q0 -4.875 -1.6875 -8.3125q-1.6875 -3.4375 -5.1875 -5.625q-3.5 -2.1875 -9.0 -3.21875q-5.5 -1.03125 -13.0625 -1.03125l-40.1875 0l0 34.9375l41.25 0q7.8125 0 13.15625 -0.90625q5.34375 -0.90625 8.625 -2.9375q3.28125 -2.03125 4.6875 -5.21875q1.40625 -3.1875 1.40625 -7.6875z" fill-rule="nonzero"/></g></svg>